<svg width="150" height="38" viewBox="0 0 150 38" fill="none" xmlns="http://www.w3.org/2000/svg">
<g clip-path="url(#clip0_22_4)">
<mask id="mask0_22_4" style="mask-type:luminance" maskUnits="userSpaceOnUse" x="0" y="5" width="22" height="22">
<path d="M21.3777 5.16626H0V26.5439H21.3777V5.16626Z" fill="white"/>
</mask>
<g mask="url(#mask0_22_4)">
<path d="M16.924 6.05701H8.01662C7.03681 6.05701 6.23514 6.85867 6.23514 7.83848V10.5107H8.01662V8.72922H16.924V22.981H8.01662V21.1995H6.23514V23.8717C6.23514 24.8515 7.03681 25.6532 8.01662 25.6532H16.924C17.9038 25.6532 18.7055 24.8515 18.7055 23.8717V7.83848C18.7055 6.85867 17.9038 6.05701 16.924 6.05701ZM6.24405 17.1645L3.97267 14.8931L2.84143 16.0243L6.23514 19.4181L12.6395 13.0137L11.5083 11.8824L6.24405 17.1645Z" fill="#F79E89"/>
</g>
<path d="M29.9098 23.9658C31.3121 23.9658 32.3981 23.7691 33.1677 23.3758C33.9373 22.9824 34.3221 22.4095 34.3221 21.657C34.3221 20.99 34.0912 20.4171 33.6295 19.9382C33.1677 19.4423 32.5948 19.0233 31.9107 18.6812C31.2266 18.3392 30.2946 17.9373 29.1145 17.4755C29.0119 17.4413 28.7639 17.3473 28.3706 17.1933C26.763 16.5435 25.5231 15.8936 24.6509 15.2437C23.7957 14.5938 23.3682 13.7558 23.3682 12.7297C23.3682 11.5838 23.8214 10.7202 24.7278 10.1387C25.6342 9.55724 26.7972 9.26651 28.2166 9.26651C29.2599 9.26651 30.2176 9.40333 31.0898 9.67696C31.9791 9.93349 32.6803 10.2926 33.1934 10.7544C33.7235 11.2162 33.9886 11.7378 33.9886 12.3192C33.7834 12.4219 33.5867 12.4732 33.3986 12.4732C33.1934 12.4732 32.9796 12.4304 32.7573 12.3449C32.552 12.2423 32.2442 12.0798 31.8338 11.8575C31.1668 11.4983 30.5425 11.2162 29.9611 11.0109C29.3796 10.7886 28.6955 10.6774 27.9088 10.6774C26.9169 10.6774 26.1131 10.8485 25.4974 11.1905C24.8817 11.5325 24.5739 12.0114 24.5739 12.6271C24.5739 13.1059 24.7791 13.542 25.1896 13.9354C25.6171 14.3287 26.1473 14.6793 26.7801 14.9872C27.4299 15.2779 28.2936 15.6285 29.371 16.039C30.7392 16.5691 31.868 17.0651 32.7573 17.5268C33.6466 17.9886 34.3991 18.5786 35.0147 19.2969C35.6476 19.9981 35.964 20.8361 35.964 21.8109C35.964 22.9568 35.4166 23.8461 34.3221 24.4789C33.2276 25.0945 31.868 25.4024 30.2432 25.4024C28.9606 25.4024 27.695 25.2143 26.4466 24.838C25.1981 24.4618 24.1292 23.9059 23.2399 23.1705C22.3506 22.4181 21.7862 21.5202 21.5468 20.477C21.5468 20.0152 21.6751 19.6219 21.9316 19.2969C22.1881 18.9549 22.5045 18.7838 22.8808 18.7838C22.8808 19.8955 23.1886 20.8447 23.8043 21.6314C24.4371 22.401 25.2836 22.9824 26.344 23.3758C27.4214 23.7691 28.61 23.9658 29.9098 23.9658ZM39.7247 24.9663C39.3314 24.9663 39.015 24.3933 38.7755 23.2475C38.5361 22.0846 38.3822 21.0841 38.3138 20.2461C38.2454 19.4081 38.1513 18.0827 38.0316 16.2698C38.0145 15.9791 38.0059 15.6028 38.0059 15.1411C38.0059 14.5596 38.0487 14.1577 38.1342 13.9354C38.2368 13.7131 38.3993 13.6019 38.6216 13.6019C38.8097 13.6019 38.9551 13.6447 39.0577 13.7302C39.1774 13.7986 39.2801 13.9183 39.3656 14.0893L39.3399 15.1154C39.3399 16.21 39.3912 17.2447 39.4938 18.2195C39.6135 19.1943 39.7931 20.5026 40.0326 22.1444C40.1694 22.8627 40.2634 23.4527 40.3147 23.9145C40.3489 24.1539 40.3062 24.3933 40.1865 24.6328C40.0668 24.8551 39.9128 24.9663 39.7247 24.9663ZM39.0834 10.857C38.7071 10.857 38.4249 10.7116 38.2368 10.4209C38.0658 10.1302 37.9803 9.77102 37.9803 9.34347C37.9803 9.15534 37.9888 9.01853 38.0059 8.93302C37.9888 8.65938 38.1428 8.52257 38.4677 8.52257C38.7071 8.52257 38.9466 8.58242 39.186 8.70214C39.4425 8.80475 39.5195 8.88171 39.4169 8.93302C39.5879 9.37767 39.6734 9.72827 39.6734 9.9848C39.6734 10.2071 39.6221 10.3867 39.5195 10.5235C39.4169 10.6432 39.2715 10.7544 39.0834 10.857ZM59.2646 24.9663C59.0081 24.9663 58.8542 24.8979 58.8029 24.761C58.7515 24.6071 58.7259 24.3762 58.7259 24.0684C58.743 23.9487 58.7516 23.8119 58.7516 23.658C58.7516 23.4869 58.7601 23.3587 58.7772 23.2732C58.8798 22.4523 58.9311 21.6741 58.9311 20.9387C58.9311 19.314 58.6575 18.0485 58.1102 17.142C57.563 16.2185 56.6993 15.7568 55.5192 15.7568C54.8694 15.7568 54.2195 15.9192 53.5696 16.2442C52.9368 16.5691 52.4152 16.971 52.0048 17.4499C51.6114 17.9287 51.4147 18.3648 51.4147 18.7582C51.5002 19.2542 51.6542 19.8613 51.8765 20.5796C51.8936 20.6651 51.962 20.9302 52.0817 21.3748C52.2185 21.8195 52.2869 22.2214 52.2869 22.5805L52.3126 23.0679C52.3126 23.3416 52.1758 23.4784 51.9021 23.4784C51.5601 23.4784 51.2779 23.2561 51.0556 22.8114C50.8504 22.3667 50.6195 21.6741 50.363 20.7335C50.1064 19.81 49.8584 19.0489 49.619 18.4504C49.3796 17.8518 49.0546 17.3387 48.6442 16.9112C48.2337 16.4836 47.7121 16.2698 47.0793 16.2698C46.2071 16.2698 45.523 16.5691 45.0271 17.1677C44.5482 17.7663 44.3088 18.5017 44.3088 19.3739C44.3088 19.9553 44.3601 20.7249 44.4627 21.6827C44.5482 22.401 44.591 23.0166 44.591 23.5297C44.591 23.8375 44.5568 24.0684 44.4884 24.2223C44.42 24.3762 44.2575 24.4532 44.001 24.4532C43.6589 24.4532 43.4195 24.342 43.2827 24.1197C43.1459 23.8803 43.0774 23.5211 43.0774 23.0423C43.0774 22.1017 43.0261 20.9644 42.9235 19.6304C42.9064 19.4594 42.8722 19.0233 42.8209 18.3221C42.7696 17.6038 42.7611 16.8855 42.7953 16.1672L42.8209 15.3207C42.9235 15.2181 43.0432 15.1667 43.1801 15.1667C43.3682 15.1667 43.5221 15.2865 43.6418 15.5259C43.7786 15.7482 43.847 16.0903 43.847 16.552C44.1036 16.1074 44.4798 15.7055 44.9758 15.3463C45.4717 14.9872 45.9934 14.8076 46.5406 14.8076C47.4812 14.8076 48.2594 15.0043 48.8751 15.3976C49.5078 15.7739 50.0808 16.3895 50.5938 17.2447C51.0727 16.3724 51.791 15.6285 52.7487 15.0128C53.7235 14.3972 54.724 14.0893 55.7501 14.0893C56.8105 14.0893 57.6912 14.4912 58.3924 15.295C59.1107 16.0988 59.6323 17.0651 59.9573 18.1938C60.2993 19.3226 60.4703 20.3658 60.4703 21.3235C60.4703 22.1786 60.3934 22.9995 60.2394 23.7862C60.1026 24.5729 59.7777 24.9663 59.2646 24.9663ZM65.5589 34.0732C65.2169 34.0732 64.8064 33.1582 64.3276 31.3283C63.8658 29.4983 63.4468 27.4632 63.0706 25.2228C62.7114 22.9995 62.5318 21.5971 62.5318 21.0157C62.5318 19.2884 63.1133 18.0314 64.2763 17.2447C65.4392 16.4409 66.9356 16.039 68.7656 16.039C69.7404 16.039 70.6639 16.2442 71.5361 16.6546C72.4083 17.048 73.1095 17.6209 73.6397 18.3734C74.1698 19.1088 74.4349 19.9639 74.4349 20.9387C74.4349 22.153 74.0074 23.0081 73.1523 23.504C72.3143 24 71.2539 24.248 69.9713 24.248C68.6373 24.248 67.5 24.0257 66.5594 23.581C65.6359 23.1192 65.1741 22.495 65.1741 21.7083L65.1998 21.4518C65.3195 21.315 65.4478 21.2466 65.5846 21.2466C65.7043 21.2466 65.8326 21.2979 65.9694 21.4005C66.1233 21.486 66.2858 21.5886 66.4568 21.7083C66.9869 22.1017 67.5086 22.4181 68.0216 22.6575C68.5518 22.8969 69.2102 23.0166 69.9969 23.0166C71.0744 23.0166 71.8354 22.8285 72.2801 22.4523C72.7418 22.0589 72.9727 21.4432 72.9727 20.6052C72.9727 19.9895 72.7675 19.4423 72.357 18.9634C71.9466 18.4846 71.4164 18.1169 70.7665 17.8603C70.1166 17.6038 69.4497 17.4755 68.7656 17.4755C67.1751 17.4755 65.9779 17.8176 65.1741 18.5017C64.3703 19.1686 64.0112 20.2888 64.0967 21.8622C64.2506 24.5302 64.49 26.7705 64.815 28.5834C65.157 30.3962 65.747 31.9354 66.585 33.2009L66.6107 33.2523C66.6107 33.2865 66.5679 33.3207 66.4824 33.3549C66.414 33.4062 66.3627 33.4489 66.3285 33.4831C66.1233 33.8081 65.8668 34.0048 65.5589 34.0732ZM77.12 24.761C76.7437 22.8969 76.453 20.6907 76.2478 18.1425C76.0596 15.5772 75.9656 13.0974 75.9656 10.7031C75.9656 9.50594 75.9912 8.44561 76.0425 7.52209C76.0425 7.29976 76.2135 7.1886 76.5556 7.1886C76.8292 7.1886 77.0002 7.25701 77.0687 7.39382C77.1542 7.53064 77.1969 7.74442 77.1969 8.03515C77.1969 10.8057 77.2482 13.1743 77.3508 15.1411C77.4535 17.0907 77.5903 19.1943 77.7613 21.4518C77.8639 22.9055 77.9323 23.8888 77.9665 24.4019C77.9836 24.6755 77.8383 24.8124 77.5304 24.8124C77.4278 24.8124 77.291 24.7952 77.12 24.761ZM87.047 37.0746C85.8841 37.0746 84.8409 36.8266 83.9174 36.3306C83.0109 35.8347 82.2841 35.2618 81.7368 34.6119C81.1896 33.962 80.8817 33.4318 80.8133 33.0214C80.7449 32.6451 80.8304 32.3544 81.0698 32.1492C81.3264 31.9439 81.6428 31.8584 82.019 31.8926C82.5492 33.1582 83.182 34.133 83.9174 34.8171C84.6527 35.5012 85.7045 35.8603 87.0727 35.8945C88.0304 35.9116 88.7915 35.296 89.3558 34.0475C89.9373 32.8162 90.3478 31.3026 90.5872 29.5069C90.8266 27.7283 90.9463 25.9753 90.9463 24.248C90.9463 23.3587 90.9207 22.6318 90.8694 22.0675C89.5696 23.658 87.9107 24.4532 85.8926 24.4532C84.1482 24.4532 82.8057 23.6238 81.8651 21.9648C80.9416 20.3059 80.343 18.4333 80.0694 16.3468C80.0352 16.1416 80.0181 15.8508 80.0181 15.4746C80.0181 14.3971 80.3687 13.8584 81.0698 13.8584C81.1382 13.8584 81.2323 14.286 81.352 15.1411C81.5402 16.4922 81.771 17.7064 82.0447 18.7838C82.3183 19.8613 82.7715 20.8447 83.4043 21.734C84.0542 22.6062 84.9093 23.0423 85.9696 23.0423C86.8076 23.0423 87.6627 22.7686 88.5349 22.2214C89.4242 21.657 90.0656 21.0328 90.4589 20.3487C90.4589 19.0489 90.2879 17.886 89.9459 16.8599C89.6209 15.8166 89.4499 15.2608 89.4328 15.1924C89.3986 14.8162 89.3815 14.5767 89.3815 14.4741C89.3815 14.1321 89.4328 13.8841 89.5354 13.7302C89.6551 13.5762 89.8261 13.4993 90.0485 13.4993C90.2879 13.4993 90.5615 13.9867 90.8694 14.9615C91.1772 15.9363 91.4508 17.2105 91.6903 18.7838C91.9297 20.3572 92.0922 21.999 92.1777 23.7093C92.2119 24.5986 92.229 25.257 92.229 25.6846C92.229 28.9682 91.8185 31.6874 90.9976 33.8423C90.1938 35.9972 88.877 37.0746 87.047 37.0746ZM98.4798 23.4014C98.4798 23.1962 98.4969 23.0423 98.5311 22.9397C98.5824 22.82 98.6936 22.7601 98.8646 22.7601C99.0185 22.7601 99.1896 22.7943 99.3777 22.8627C99.5829 22.9311 99.7796 23.0081 99.9677 23.0936C100.447 23.2988 100.874 23.4527 101.25 23.5553C101.644 23.658 102.131 23.7093 102.713 23.7093C104.833 23.7093 106.424 23.2048 107.484 22.1957C108.562 21.1867 109.1 19.8698 109.1 18.2451C109.1 16.7914 108.69 15.5173 107.869 14.4228C107.048 13.3112 106.005 12.439 104.739 11.8062C103.491 11.1734 102.217 10.7971 100.917 10.6774L102.379 21.5287C102.379 21.8195 102.336 22.0589 102.251 22.247C102.182 22.4352 102.011 22.5292 101.738 22.5292C101.669 22.5634 101.541 22.1017 101.353 21.1439C101.165 20.1862 100.908 18.7753 100.583 16.9112C100.207 14.7392 99.9164 13.1316 99.7112 12.0884C99.5059 11.028 99.3435 10.4209 99.2238 10.267C97.8043 10.267 96.6413 10.3439 95.7349 10.4979C94.8285 10.6347 94.1359 10.7971 93.657 10.9853C93.1782 11.1734 92.9815 11.2675 93.067 11.2675C92.9815 11.2333 92.9216 11.1819 92.8874 11.1135C92.8532 11.028 92.8276 10.9083 92.8105 10.7544C92.7763 10.6005 92.7506 10.4893 92.7335 10.4209C92.7335 10.0105 93.1012 9.68551 93.8366 9.44608C94.572 9.20665 95.3416 9.04418 96.1454 8.95867C96.9663 8.87316 97.5135 8.8304 97.7872 8.8304C99.6171 8.8304 101.524 9.20665 103.508 9.95914C105.492 10.6945 107.159 11.7805 108.51 13.2171C109.861 14.6537 110.537 16.3553 110.537 18.3221C110.537 19.7929 110.169 21.0499 109.434 22.0931C108.698 23.1192 107.732 23.8974 106.535 24.4276C105.355 24.9577 104.089 25.2228 102.738 25.2228C101.644 25.2228 100.66 25.0518 99.7881 24.7097C98.9159 24.3677 98.4798 23.9316 98.4798 23.4014ZM118.422 24.9663C117.413 24.9663 116.498 24.7439 115.677 24.2993C114.873 23.8375 114.241 23.2048 113.779 22.401C113.334 21.58 113.112 20.648 113.112 19.6048C113.112 17.8945 113.736 16.6204 114.984 15.7824C116.25 14.9444 117.798 14.5254 119.628 14.5254C120.466 14.5254 121.244 14.7306 121.962 15.1411C122.698 15.5515 123.288 16.1416 123.732 16.9112C124.177 17.6808 124.399 18.5701 124.399 19.5791C124.399 20.6736 124.117 21.6314 123.553 22.4523C122.988 23.2561 122.244 23.8803 121.321 24.3249C120.414 24.7525 119.448 24.9663 118.422 24.9663ZM118.14 23.504C119.73 23.504 120.936 23.1449 121.757 22.4266C122.578 21.7083 122.988 20.6565 122.988 19.2713C122.988 18.3306 122.663 17.5183 122.013 16.8342C121.381 16.1501 120.491 15.8081 119.346 15.8081C118.576 15.8081 117.798 15.9534 117.011 16.2442C116.224 16.5349 115.574 16.971 115.061 17.5525C114.548 18.134 114.292 18.8352 114.292 19.6561C114.292 20.3401 114.463 20.9815 114.805 21.58C115.147 22.1615 115.609 22.6318 116.19 22.991C116.789 23.333 117.439 23.504 118.14 23.504ZM128.876 25.0432C128.637 25.1116 128.5 25.1458 128.466 25.1458C128.329 25.1458 128.184 25.0774 128.03 24.9406C127.465 24.1026 127.055 22.6404 126.798 20.5539C126.559 18.4675 126.439 16.6717 126.439 15.1667C126.439 14.9273 126.61 14.8076 126.952 14.8076C127.465 14.8076 127.722 15.0898 127.722 15.6542C127.722 15.8081 127.713 15.9363 127.696 16.039C127.85 15.6798 128.141 15.3121 128.569 14.9359C128.996 14.5596 129.492 14.2432 130.056 13.9867C130.621 13.7302 131.194 13.6019 131.775 13.6019C133.605 13.6019 134.939 14.4143 135.777 16.039C136.615 17.6466 137.034 19.6475 137.034 22.0418C137.034 22.8627 136.949 23.5211 136.778 24.0171C136.607 24.496 136.376 24.7354 136.085 24.7354C135.777 24.7354 135.623 24.6413 135.623 24.4532C135.743 23.5468 135.803 22.6575 135.803 21.7853C135.803 19.5791 135.418 17.9116 134.648 16.7829C133.879 15.6371 132.861 15.0641 131.596 15.0641C130.98 15.0641 130.381 15.2181 129.8 15.5259C129.236 15.8337 128.774 16.2613 128.415 16.8086C128.073 17.3558 127.902 17.98 127.902 18.6812C127.902 19.4679 127.944 20.152 128.03 20.7335C128.115 21.315 128.252 22.0162 128.44 22.8371C128.646 23.6409 128.791 24.3762 128.876 25.0432ZM145.145 24.9406C144.05 24.9406 143.041 24.7268 142.118 24.2993C141.194 23.8717 140.459 23.2646 139.912 22.4779C139.364 21.6912 139.091 20.7848 139.091 19.7587C139.091 18.6128 139.304 17.5439 139.732 16.552C140.16 15.543 140.784 14.7392 141.605 14.1406C142.443 13.5249 143.417 13.2171 144.529 13.2171C145.692 13.2171 146.573 13.5933 147.171 14.3458C147.77 15.0812 148.052 16.0133 148.018 17.142C148.018 18.1511 147.616 18.9207 146.812 19.4508C146.026 19.981 145.017 20.2461 143.785 20.2461C143.597 20.2461 143.315 20.229 142.939 20.1948C142.323 20.1264 141.887 20.0323 141.63 19.9126C141.374 19.7929 141.245 19.5534 141.245 19.1943C141.245 19.0746 141.28 18.9891 141.348 18.9378C141.417 18.8694 141.553 18.8352 141.759 18.8352C141.981 18.8352 142.374 18.8865 142.939 18.9891C143.486 19.0917 143.973 19.143 144.401 19.143C145.974 19.143 146.761 18.4589 146.761 17.0907C146.761 16.2698 146.607 15.62 146.299 15.1411C146.008 14.6622 145.487 14.4228 144.734 14.4228C143.913 14.4228 143.178 14.6451 142.528 15.0898C141.878 15.5173 141.374 16.0817 141.015 16.7829C140.673 17.4841 140.502 18.228 140.502 19.0147C140.502 20.3658 140.878 21.4774 141.63 22.3496C142.383 23.2048 143.546 23.6323 145.119 23.6323C145.307 23.6323 145.624 23.6152 146.068 23.581C146.256 23.5639 146.487 23.5126 146.761 23.4271C147.035 23.3416 147.231 23.2817 147.351 23.2475C148.086 22.991 148.625 22.8627 148.967 22.8627C149.224 22.8627 149.42 22.9311 149.557 23.0679C149.13 23.7178 148.488 24.1967 147.633 24.5045C146.795 24.7952 145.966 24.9406 145.145 24.9406Z" fill="#F79E89"/>
</g>
<defs>
<clipPath id="clip0_22_4">
<rect width="150" height="37.4109" fill="white"/>
</clipPath>
</defs>
</svg>
